<?xml version="1.0" standalone="no"?><!DOCTYPE svg PUBLIC "-//W3C//DTD SVG 1.1//EN" "http://www.w3.org/Graphics/SVG/1.1/DTD/svg11.dtd"><svg t="1677049204681" class="icon" viewBox="0 0 1024 1024" version="1.1" xmlns="http://www.w3.org/2000/svg" p-id="2432" xmlns:xlink="http://www.w3.org/1999/xlink" width="200" height="200"><path d="M483.560786 303.633369l16.066931-30.213116c22.760376-42.874483 73.545016-57.157791 120.586402-34.085306 21.74014 10.680247 37.793768 29.079292 45.131897 51.783387 7.334036 22.695908 5.129834 47.042409-6.264681 68.415183l-50.578955 95.15622c-15.597233 29.401634-35.956933 48.305169-58.662051 55.644321-18.541285 6.009877-38.58683 4.295839-58.925041-5.692652-11.768021-5.830799-16.454764-19.9821-10.31288-31.685653 6.14393-11.69332 20.62576-16.431228 32.508391-10.620895 8.856715 4.370541 29.636994 14.539134 52.783157-28.955472l50.6424-95.160313c5.373381-10.111289 6.392594-21.560038 2.977821-32.238238-3.557012-10.68434-11.08036-19.345604-21.357424-24.409946-19.310811-9.420557-44.010353-9.04398-55.844889 13.152555L526.238794 324.94372c-6.198166 11.628852-20.726044 16.311501-32.561603 10.43363C481.913263 329.494363 477.378993 315.278593 483.560786 303.633369L483.560786 303.633369 483.560786 303.633369zM400.861272 652.342352c22.38687 10.997472 47.494711 11.957333 69.88465 4.747117 22.37152-7.284917 42.152029-22.779819 53.845349-44.783972l12.902868-24.26873c6.216585-11.633968 1.660826-25.869181-10.115382-31.743982-11.746532-5.877871-26.351158-1.195222-32.493042 10.443863l-12.902868 24.214495c-11.183713 20.985964-37.670971 29.582759-58.994626 19.089777-10.292414-5.001921-17.821901-13.667278-21.290909-24.341385-3.428076-10.679223-2.413979-22.132066 2.978844-32.18912l47.478338-89.220021c9.855462-18.458397 30.141484-47.536666 55.94722-34.952047 11.870352 5.814426 26.365484 1.067308 32.493042-10.624988 6.075369-11.703553 1.400906-25.865087-10.419304-31.680537-43.813878-21.494547-91.257423 0.442068-120.703059 55.900148l-47.479361 89.203648c-11.379165 21.437242-13.601786 45.715181-6.264681 68.415183C363.042945 623.308085 379.117039 641.647779 400.861272 652.342352L400.861272 652.342352 400.861272 652.342352zM810.977837 135.64333l0 749.742682c0 40.4779-32.839943 73.2984-73.2984 73.2984l-454.286554 0c-40.473807 0-73.27998-32.825616-73.27998-73.2984L210.112903 135.64333c0-40.472783 32.806173-73.278957 73.27998-73.278957l454.356139 0C778.137895 62.429865 810.889833 95.17157 810.977837 135.64333L810.977837 135.64333 810.977837 135.64333zM566.471101 855.606779c0-30.842449-25.051559-55.878658-55.919591-55.878658-30.842449 0-55.876612 25.037233-55.876612 55.878658 0 30.865985 25.034163 55.898101 55.876612 55.898101C541.419542 911.50488 566.471101 886.472763 566.471101 855.606779L566.471101 855.606779 566.471101 855.606779zM735.774041 137.598868 285.42517 137.598868l0 614.94972L735.719806 752.548588 735.774041 137.598868 735.774041 137.598868 735.774041 137.598868zM735.774041 137.598868" fill="#272636" p-id="2433"></path></svg>