<?xml version="1.0" standalone="no"?><!DOCTYPE svg PUBLIC "-//W3C//DTD SVG 1.1//EN" "http://www.w3.org/Graphics/SVG/1.1/DTD/svg11.dtd"><svg t="1677461249491" class="icon" viewBox="0 0 1024 1024" version="1.1" xmlns="http://www.w3.org/2000/svg" p-id="3711" xmlns:xlink="http://www.w3.org/1999/xlink" width="200" height="200"><path d="M768 864a32 32 0 0 1 0 64H256a32 32 0 0 1 0-64h512zM547.52 126.112a64 64 0 0 1 17.728 17.76L704 352l140.16-93.44a64 64 0 0 1 96.768 71.68l-127.232 424.16A64 64 0 0 1 752.384 800H271.616a64 64 0 0 1-61.312-45.6L83.072 330.208A64 64 0 0 1 179.84 258.592L320 352l138.752-208.128a64 64 0 0 1 88.736-17.76zM512 179.392l-174.24 261.376-193.408-128.96L271.616 736h480.768l127.264-424.16-193.408 128.928L512 179.392z" fill="#000000" p-id="3712"></path></svg>