<?xml version="1.0" standalone="no"?><!DOCTYPE svg PUBLIC "-//W3C//DTD SVG 1.1//EN" "http://www.w3.org/Graphics/SVG/1.1/DTD/svg11.dtd"><svg t="1675670884906" class="icon" viewBox="0 0 1024 1024" version="1.1" xmlns="http://www.w3.org/2000/svg" p-id="4812" xmlns:xlink="http://www.w3.org/1999/xlink" width="200" height="200"><path d="M320 64h64v160h-64z" p-id="4813"></path><path d="M192 192h640v64H192z" p-id="4814"></path><path d="M640 64h64v160h-64z" p-id="4815"></path><path d="M482.26 832H192.11l-0.11-0.11V192.11l0.11-0.11h639.78l0.11 0.11v290.15a257.16 257.16 0 0 1 64 52.44V192a64.19 64.19 0 0 0-64-64H192a64.19 64.19 0 0 0-64 64v640a64.19 64.19 0 0 0 64 64h342.69a257.16 257.16 0 0 1-52.43-64z" p-id="4816"></path><path d="M896 534.69v89.71a48 48 0 0 1 0 75.7V832a64.19 64.19 0 0 1-64 64H534.69A255 255 0 0 0 704 960c141.38 0 256-114.62 256-256a255 255 0 0 0-64-169.31z" p-id="4817"></path><path d="M808 775.25a48 48 0 1 1-89.22-24.6l-71.1-71.1a47.84 47.84 0 0 1-21.32 0l-43.21 43.21a48 48 0 1 1-24.34-20.91l40-40a48 48 0 1 1 76.38 0l68.33 68.33a48.2 48.2 0 0 1 32.93 0l46.88-46.88a48 48 0 0 1 8.67-54.4V482.26A254.81 254.81 0 0 0 704 448c-141.38 0-256 114.62-256 256a254.82 254.82 0 0 0 34.26 128h349.63l0.11-0.11v-112l-30.79 30.79a47.77 47.77 0 0 1 6.79 24.57zM832 482.26V628.9a48 48 0 0 1 64-4.5v-89.71a257.16 257.16 0 0 0-64-52.43z" p-id="4818"></path><path d="M896 832V700.1a48 48 0 0 1-49.86 5.62L832 719.86v112l-0.11 0.11H482.26a257.16 257.16 0 0 0 52.44 64H832A64.19 64.19 0 0 0 896 832zM256 352h512v64H256zM256 480h224v64H256z" p-id="4819"></path></svg>