<?xml version="1.0" standalone="no"?><!DOCTYPE svg PUBLIC "-//W3C//DTD SVG 1.1//EN" "http://www.w3.org/Graphics/SVG/1.1/DTD/svg11.dtd"><svg t="1675670891982" class="icon" viewBox="0 0 1024 1024" version="1.1" xmlns="http://www.w3.org/2000/svg" p-id="5099" xmlns:xlink="http://www.w3.org/1999/xlink" width="200" height="200"><path d="M832 576H448V192a64.19 64.19 0 0 0-64-64H192a64.19 64.19 0 0 0-64 64v640a64.19 64.19 0 0 0 64 64h640a64.19 64.19 0 0 0 64-64V640a64.19 64.19 0 0 0-64-64z m0 255.89l-0.11 0.11H192.11l-0.11-0.11V192.11l0.11-0.11h191.78l0.11 0.11V640h447.89l0.11 0.11z" p-id="5100"></path><path d="M704 640h64v96h-64zM576 640h64v96h-64zM448 640h64v96h-64zM288 512h96v64h-96zM288 384h96v64h-96z" p-id="5101"></path></svg>