<?xml version="1.0" standalone="no"?><!DOCTYPE svg PUBLIC "-//W3C//DTD SVG 1.1//EN" "http://www.w3.org/Graphics/SVG/1.1/DTD/svg11.dtd"><svg t="1675670876603" class="icon" viewBox="0 0 1024 1024" version="1.1" xmlns="http://www.w3.org/2000/svg" p-id="4529" xmlns:xlink="http://www.w3.org/1999/xlink" width="200" height="200"><path d="M704 448c-141.38 0-256 114.62-256 256s114.62 256 256 256 256-114.62 256-256-114.62-256-256-256z m160 197.55l-0.28 0.28-57.81 57.91-135.8 136L512 681.37l45.18-45.25 112.94 113.14 129.71-129.95 0.17-0.17 50.82-50.91 12.9 12.92 0.28 0.28 32 32.06z" fill="#231815" p-id="4530"></path><path d="M768 128h-64v64h63.89l0.11 0.11v264a254.42 254.42 0 0 1 64 26.19V192a64.19 64.19 0 0 0-64-64zM256.11 896l-0.11-0.11V192.11l0.11-0.11H320v-64h-64a64.19 64.19 0 0 0-64 64v704a64.19 64.19 0 0 0 64 64h448a255 255 0 0 1-169.31-64z" fill="#231815" p-id="4531"></path><path d="M602.53 128a96 96 0 0 0-181.06 0H352v128h320V128zM512 192a32 32 0 1 1 32-32 32 32 0 0 1-32 32z" fill="#231815" p-id="4532"></path></svg>