<?xml version="1.0" standalone="no"?><!DOCTYPE svg PUBLIC "-//W3C//DTD SVG 1.1//EN" "http://www.w3.org/Graphics/SVG/1.1/DTD/svg11.dtd"><svg t="1675670943825" class="icon" viewBox="0 0 1024 1024" version="1.1" xmlns="http://www.w3.org/2000/svg" p-id="6507" xmlns:xlink="http://www.w3.org/1999/xlink" width="200" height="200"><path d="M819.2 576H640l-30.24-90.73A191.9 191.9 0 0 0 704 320c0-106-86-192-192-192s-192 86-192 192a191.9 191.9 0 0 0 94.24 165.27L384 576H204.8c-42.24 0-76.8 28.8-76.8 64v192c0 35.2 34.56 64 76.8 64h614.4c42.24 0 76.8-28.8 76.8-64V640c0-35.2-34.56-64-76.8-64z" p-id="6508"></path></svg>