<?xml version="1.0" standalone="no"?><!DOCTYPE svg PUBLIC "-//W3C//DTD SVG 1.1//EN" "http://www.w3.org/Graphics/SVG/1.1/DTD/svg11.dtd"><svg t="1675670952520" class="icon" viewBox="0 0 1024 1024" version="1.1" xmlns="http://www.w3.org/2000/svg" p-id="6789" xmlns:xlink="http://www.w3.org/1999/xlink" width="200" height="200"><path d="M576 416v-96a128 128 0 0 1 256 0v96h64v-96c0-106-86-192-192-192s-192 86-192 192v96zM640 448H192a64.19 64.19 0 0 0-64 64v320a64.19 64.19 0 0 0 64 64h448a64.19 64.19 0 0 0 64-64V512a64.19 64.19 0 0 0-64-64zM448 730.53V832h-64V730.53a96 96 0 1 1 64 0z" p-id="6790"></path></svg>